<mxfile host="app.diagrams.net" modified="2023-12-21T08:33:22.942Z" agent="Mozilla/5.0 (Windows NT 10.0; Win64; x64; rv:121.0) Gecko/20100101 Firefox/121.0" etag="mpJAP0UgWnzaaOvym5XV" version="22.1.11" type="device" pages="3">
  <diagram name="PageAccueil" id="2TXwo9gbs4rRBUN1DGV3">
    <mxGraphModel dx="1838" dy="1114" grid="1" gridSize="10" guides="1" tooltips="1" connect="1" arrows="1" fold="1" page="1" pageScale="1" pageWidth="1920" pageHeight="1200" math="0" shadow="0">
      <root>
        <mxCell id="0" />
        <mxCell id="1" parent="0" />
        <mxCell id="amMof3nMNSoe1B8IsklJ-2" value="Puissance Quatre" style="strokeWidth=1;shadow=0;dashed=0;align=center;html=1;shape=mxgraph.mockup.containers.window;align=left;verticalAlign=top;spacingLeft=8;strokeColor2=#008cff;strokeColor3=#c4c4c4;fontColor=#666666;mainText=;fontSize=17;labelBackgroundColor=none;whiteSpace=wrap;" vertex="1" parent="1">
          <mxGeometry x="685" y="300" width="550" height="600" as="geometry" />
        </mxCell>
        <mxCell id="amMof3nMNSoe1B8IsklJ-3" value="" style="strokeWidth=1;shadow=0;dashed=0;align=center;html=1;shape=mxgraph.mockup.forms.rrect;rSize=0;strokeColor=#999999;" vertex="1" parent="1">
          <mxGeometry x="685" y="330" width="545" height="30" as="geometry" />
        </mxCell>
        <mxCell id="amMof3nMNSoe1B8IsklJ-4" value="Partie" style="strokeColor=inherit;fillColor=inherit;gradientColor=inherit;strokeWidth=1;shadow=0;dashed=0;align=center;html=1;shape=mxgraph.mockup.forms.rrect;rSize=0;fontSize=17;fontColor=#666666;whiteSpace=wrap;" vertex="1" parent="amMof3nMNSoe1B8IsklJ-3">
          <mxGeometry width="100" height="30" as="geometry" />
        </mxCell>
        <mxCell id="amMof3nMNSoe1B8IsklJ-5" value="Paramètres" style="strokeColor=inherit;fillColor=inherit;gradientColor=inherit;strokeWidth=1;shadow=0;dashed=0;align=center;html=1;shape=mxgraph.mockup.forms.rrect;rSize=0;fontSize=17;fontColor=#666666;whiteSpace=wrap;" vertex="1" parent="amMof3nMNSoe1B8IsklJ-3">
          <mxGeometry x="100" width="150" height="30" as="geometry" />
        </mxCell>
        <mxCell id="amMof3nMNSoe1B8IsklJ-6" value="A Propos" style="strokeColor=inherit;fillColor=inherit;gradientColor=inherit;strokeWidth=1;shadow=0;dashed=0;align=center;html=1;shape=mxgraph.mockup.forms.rrect;rSize=0;fontSize=17;fontColor=#666666;whiteSpace=wrap;" vertex="1" parent="amMof3nMNSoe1B8IsklJ-3">
          <mxGeometry x="250" width="120" height="30" as="geometry" />
        </mxCell>
        <mxCell id="amMof3nMNSoe1B8IsklJ-11" value="&lt;font style=&quot;font-size: 40px;&quot;&gt;Jouer&lt;/font&gt;" style="strokeWidth=1;shadow=0;dashed=0;align=center;html=1;shape=mxgraph.mockup.buttons.button;strokeColor=#666666;fontColor=#333333;mainText=;buttonStyle=round;fontSize=17;fontStyle=1;fillColor=#f5f5f5;whiteSpace=wrap;" vertex="1" parent="1">
          <mxGeometry x="858" y="710" width="205" height="90" as="geometry" />
        </mxCell>
        <mxCell id="amMof3nMNSoe1B8IsklJ-12" value="&lt;font style=&quot;font-size: 50px;&quot;&gt;Puissance 4&lt;/font&gt;" style="text;html=1;strokeColor=none;fillColor=none;align=center;verticalAlign=middle;whiteSpace=wrap;rounded=0;" vertex="1" parent="1">
          <mxGeometry x="792.5" y="450" width="330" height="60" as="geometry" />
        </mxCell>
      </root>
    </mxGraphModel>
  </diagram>
  <diagram id="pp6uk78p1qZF44GDYSgt" name="PageJeu">
    <mxGraphModel dx="2083" dy="1263" grid="1" gridSize="10" guides="1" tooltips="1" connect="1" arrows="1" fold="1" page="1" pageScale="1" pageWidth="1920" pageHeight="1200" math="0" shadow="0">
      <root>
        <mxCell id="0" />
        <mxCell id="1" parent="0" />
        <mxCell id="5qlQxNVg0XVNPBJvxIN9-1" value="Puissance Quatre" style="strokeWidth=1;shadow=0;dashed=0;align=center;html=1;shape=mxgraph.mockup.containers.window;align=left;verticalAlign=top;spacingLeft=8;strokeColor2=#008cff;strokeColor3=#c4c4c4;fontColor=#666666;mainText=;fontSize=17;labelBackgroundColor=none;whiteSpace=wrap;" vertex="1" parent="1">
          <mxGeometry x="520" y="180" width="600" height="720" as="geometry" />
        </mxCell>
        <mxCell id="ZDUaPTV_WmkxvIF6fVCS-28" value="" style="rounded=0;whiteSpace=wrap;html=1;" vertex="1" parent="1">
          <mxGeometry x="530" y="280" width="570" height="500" as="geometry" />
        </mxCell>
        <mxCell id="ZDUaPTV_WmkxvIF6fVCS-10" value="" style="strokeWidth=1;shadow=0;dashed=0;align=center;html=1;shape=mxgraph.mockup.forms.rrect;rSize=0;strokeColor=#999999;" vertex="1" parent="1">
          <mxGeometry x="520" y="210" width="600" height="30" as="geometry" />
        </mxCell>
        <mxCell id="ZDUaPTV_WmkxvIF6fVCS-11" value="Partie" style="strokeColor=inherit;fillColor=inherit;gradientColor=inherit;strokeWidth=1;shadow=0;dashed=0;align=center;html=1;shape=mxgraph.mockup.forms.rrect;rSize=0;fontSize=17;fontColor=#666666;whiteSpace=wrap;" vertex="1" parent="ZDUaPTV_WmkxvIF6fVCS-10">
          <mxGeometry width="68.18181818181817" height="30" as="geometry" />
        </mxCell>
        <mxCell id="ZDUaPTV_WmkxvIF6fVCS-12" value="Paramètres" style="strokeColor=inherit;fillColor=inherit;gradientColor=inherit;strokeWidth=1;shadow=0;dashed=0;align=center;html=1;shape=mxgraph.mockup.forms.rrect;rSize=0;fontSize=17;fontColor=#666666;whiteSpace=wrap;" vertex="1" parent="ZDUaPTV_WmkxvIF6fVCS-10">
          <mxGeometry x="68.18181818181817" width="121.72500000000001" height="30" as="geometry" />
        </mxCell>
        <mxCell id="ZDUaPTV_WmkxvIF6fVCS-13" value="A Propos" style="strokeColor=inherit;fillColor=inherit;gradientColor=inherit;strokeWidth=1;shadow=0;dashed=0;align=center;html=1;shape=mxgraph.mockup.forms.rrect;rSize=0;fontSize=17;fontColor=#666666;whiteSpace=wrap;" vertex="1" parent="ZDUaPTV_WmkxvIF6fVCS-10">
          <mxGeometry x="190.9090909090909" width="102.27272727272728" height="30" as="geometry" />
        </mxCell>
        <mxCell id="ZDUaPTV_WmkxvIF6fVCS-15" value="" style="ellipse;whiteSpace=wrap;html=1;aspect=fixed;" vertex="1" parent="1">
          <mxGeometry x="540" y="700" width="70" height="70" as="geometry" />
        </mxCell>
        <mxCell id="ZDUaPTV_WmkxvIF6fVCS-16" value="" style="ellipse;whiteSpace=wrap;html=1;aspect=fixed;" vertex="1" parent="1">
          <mxGeometry x="620" y="700" width="70" height="70" as="geometry" />
        </mxCell>
        <mxCell id="ZDUaPTV_WmkxvIF6fVCS-17" value="" style="ellipse;whiteSpace=wrap;html=1;aspect=fixed;" vertex="1" parent="1">
          <mxGeometry x="700" y="700" width="70" height="70" as="geometry" />
        </mxCell>
        <mxCell id="ZDUaPTV_WmkxvIF6fVCS-18" value="" style="ellipse;whiteSpace=wrap;html=1;aspect=fixed;" vertex="1" parent="1">
          <mxGeometry x="860" y="700" width="70" height="70" as="geometry" />
        </mxCell>
        <mxCell id="ZDUaPTV_WmkxvIF6fVCS-19" value="" style="ellipse;whiteSpace=wrap;html=1;aspect=fixed;" vertex="1" parent="1">
          <mxGeometry x="780" y="700" width="70" height="70" as="geometry" />
        </mxCell>
        <mxCell id="ZDUaPTV_WmkxvIF6fVCS-21" value="" style="ellipse;whiteSpace=wrap;html=1;aspect=fixed;" vertex="1" parent="1">
          <mxGeometry x="940" y="700" width="70" height="70" as="geometry" />
        </mxCell>
        <mxCell id="ZDUaPTV_WmkxvIF6fVCS-22" value="" style="ellipse;whiteSpace=wrap;html=1;aspect=fixed;" vertex="1" parent="1">
          <mxGeometry x="1020" y="700" width="70" height="70" as="geometry" />
        </mxCell>
        <mxCell id="ZDUaPTV_WmkxvIF6fVCS-29" value="" style="ellipse;whiteSpace=wrap;html=1;aspect=fixed;" vertex="1" parent="1">
          <mxGeometry x="540" y="620" width="70" height="70" as="geometry" />
        </mxCell>
        <mxCell id="ZDUaPTV_WmkxvIF6fVCS-30" value="" style="ellipse;whiteSpace=wrap;html=1;aspect=fixed;" vertex="1" parent="1">
          <mxGeometry x="620" y="620" width="70" height="70" as="geometry" />
        </mxCell>
        <mxCell id="ZDUaPTV_WmkxvIF6fVCS-31" value="" style="ellipse;whiteSpace=wrap;html=1;aspect=fixed;" vertex="1" parent="1">
          <mxGeometry x="700" y="620" width="70" height="70" as="geometry" />
        </mxCell>
        <mxCell id="ZDUaPTV_WmkxvIF6fVCS-32" value="" style="ellipse;whiteSpace=wrap;html=1;aspect=fixed;" vertex="1" parent="1">
          <mxGeometry x="860" y="620" width="70" height="70" as="geometry" />
        </mxCell>
        <mxCell id="ZDUaPTV_WmkxvIF6fVCS-33" value="" style="ellipse;whiteSpace=wrap;html=1;aspect=fixed;" vertex="1" parent="1">
          <mxGeometry x="780" y="620" width="70" height="70" as="geometry" />
        </mxCell>
        <mxCell id="ZDUaPTV_WmkxvIF6fVCS-34" value="" style="ellipse;whiteSpace=wrap;html=1;aspect=fixed;" vertex="1" parent="1">
          <mxGeometry x="940" y="620" width="70" height="70" as="geometry" />
        </mxCell>
        <mxCell id="ZDUaPTV_WmkxvIF6fVCS-35" value="" style="ellipse;whiteSpace=wrap;html=1;aspect=fixed;" vertex="1" parent="1">
          <mxGeometry x="1020" y="620" width="70" height="70" as="geometry" />
        </mxCell>
        <mxCell id="ZDUaPTV_WmkxvIF6fVCS-36" value="" style="ellipse;whiteSpace=wrap;html=1;aspect=fixed;" vertex="1" parent="1">
          <mxGeometry x="540" y="540" width="70" height="70" as="geometry" />
        </mxCell>
        <mxCell id="ZDUaPTV_WmkxvIF6fVCS-37" value="" style="ellipse;whiteSpace=wrap;html=1;aspect=fixed;" vertex="1" parent="1">
          <mxGeometry x="620" y="540" width="70" height="70" as="geometry" />
        </mxCell>
        <mxCell id="ZDUaPTV_WmkxvIF6fVCS-38" value="" style="ellipse;whiteSpace=wrap;html=1;aspect=fixed;" vertex="1" parent="1">
          <mxGeometry x="700" y="540" width="70" height="70" as="geometry" />
        </mxCell>
        <mxCell id="ZDUaPTV_WmkxvIF6fVCS-39" value="" style="ellipse;whiteSpace=wrap;html=1;aspect=fixed;" vertex="1" parent="1">
          <mxGeometry x="860" y="540" width="70" height="70" as="geometry" />
        </mxCell>
        <mxCell id="ZDUaPTV_WmkxvIF6fVCS-40" value="" style="ellipse;whiteSpace=wrap;html=1;aspect=fixed;" vertex="1" parent="1">
          <mxGeometry x="780" y="540" width="70" height="70" as="geometry" />
        </mxCell>
        <mxCell id="ZDUaPTV_WmkxvIF6fVCS-41" value="" style="ellipse;whiteSpace=wrap;html=1;aspect=fixed;" vertex="1" parent="1">
          <mxGeometry x="940" y="540" width="70" height="70" as="geometry" />
        </mxCell>
        <mxCell id="ZDUaPTV_WmkxvIF6fVCS-42" value="" style="ellipse;whiteSpace=wrap;html=1;aspect=fixed;" vertex="1" parent="1">
          <mxGeometry x="1020" y="540" width="70" height="70" as="geometry" />
        </mxCell>
        <mxCell id="ZDUaPTV_WmkxvIF6fVCS-43" value="" style="ellipse;whiteSpace=wrap;html=1;aspect=fixed;" vertex="1" parent="1">
          <mxGeometry x="540" y="460" width="70" height="70" as="geometry" />
        </mxCell>
        <mxCell id="ZDUaPTV_WmkxvIF6fVCS-44" value="" style="ellipse;whiteSpace=wrap;html=1;aspect=fixed;" vertex="1" parent="1">
          <mxGeometry x="620" y="460" width="70" height="70" as="geometry" />
        </mxCell>
        <mxCell id="ZDUaPTV_WmkxvIF6fVCS-45" value="" style="ellipse;whiteSpace=wrap;html=1;aspect=fixed;" vertex="1" parent="1">
          <mxGeometry x="700" y="460" width="70" height="70" as="geometry" />
        </mxCell>
        <mxCell id="ZDUaPTV_WmkxvIF6fVCS-46" value="" style="ellipse;whiteSpace=wrap;html=1;aspect=fixed;" vertex="1" parent="1">
          <mxGeometry x="860" y="460" width="70" height="70" as="geometry" />
        </mxCell>
        <mxCell id="ZDUaPTV_WmkxvIF6fVCS-47" value="" style="ellipse;whiteSpace=wrap;html=1;aspect=fixed;" vertex="1" parent="1">
          <mxGeometry x="780" y="460" width="70" height="70" as="geometry" />
        </mxCell>
        <mxCell id="ZDUaPTV_WmkxvIF6fVCS-48" value="" style="ellipse;whiteSpace=wrap;html=1;aspect=fixed;" vertex="1" parent="1">
          <mxGeometry x="940" y="460" width="70" height="70" as="geometry" />
        </mxCell>
        <mxCell id="ZDUaPTV_WmkxvIF6fVCS-49" value="" style="ellipse;whiteSpace=wrap;html=1;aspect=fixed;" vertex="1" parent="1">
          <mxGeometry x="1020" y="460" width="70" height="70" as="geometry" />
        </mxCell>
        <mxCell id="ZDUaPTV_WmkxvIF6fVCS-50" value="" style="ellipse;whiteSpace=wrap;html=1;aspect=fixed;" vertex="1" parent="1">
          <mxGeometry x="540" y="380" width="70" height="70" as="geometry" />
        </mxCell>
        <mxCell id="ZDUaPTV_WmkxvIF6fVCS-51" value="" style="ellipse;whiteSpace=wrap;html=1;aspect=fixed;" vertex="1" parent="1">
          <mxGeometry x="620" y="380" width="70" height="70" as="geometry" />
        </mxCell>
        <mxCell id="ZDUaPTV_WmkxvIF6fVCS-52" value="" style="ellipse;whiteSpace=wrap;html=1;aspect=fixed;" vertex="1" parent="1">
          <mxGeometry x="700" y="380" width="70" height="70" as="geometry" />
        </mxCell>
        <mxCell id="ZDUaPTV_WmkxvIF6fVCS-53" value="" style="ellipse;whiteSpace=wrap;html=1;aspect=fixed;" vertex="1" parent="1">
          <mxGeometry x="860" y="380" width="70" height="70" as="geometry" />
        </mxCell>
        <mxCell id="ZDUaPTV_WmkxvIF6fVCS-54" value="" style="ellipse;whiteSpace=wrap;html=1;aspect=fixed;" vertex="1" parent="1">
          <mxGeometry x="780" y="380" width="70" height="70" as="geometry" />
        </mxCell>
        <mxCell id="ZDUaPTV_WmkxvIF6fVCS-55" value="" style="ellipse;whiteSpace=wrap;html=1;aspect=fixed;" vertex="1" parent="1">
          <mxGeometry x="940" y="380" width="70" height="70" as="geometry" />
        </mxCell>
        <mxCell id="ZDUaPTV_WmkxvIF6fVCS-56" value="" style="ellipse;whiteSpace=wrap;html=1;aspect=fixed;" vertex="1" parent="1">
          <mxGeometry x="1020" y="380" width="70" height="70" as="geometry" />
        </mxCell>
        <mxCell id="ZDUaPTV_WmkxvIF6fVCS-57" value="" style="ellipse;whiteSpace=wrap;html=1;aspect=fixed;" vertex="1" parent="1">
          <mxGeometry x="540" y="300" width="70" height="70" as="geometry" />
        </mxCell>
        <mxCell id="ZDUaPTV_WmkxvIF6fVCS-58" value="" style="ellipse;whiteSpace=wrap;html=1;aspect=fixed;" vertex="1" parent="1">
          <mxGeometry x="620" y="300" width="70" height="70" as="geometry" />
        </mxCell>
        <mxCell id="ZDUaPTV_WmkxvIF6fVCS-59" value="" style="ellipse;whiteSpace=wrap;html=1;aspect=fixed;" vertex="1" parent="1">
          <mxGeometry x="700" y="300" width="70" height="70" as="geometry" />
        </mxCell>
        <mxCell id="ZDUaPTV_WmkxvIF6fVCS-60" value="" style="ellipse;whiteSpace=wrap;html=1;aspect=fixed;" vertex="1" parent="1">
          <mxGeometry x="860" y="300" width="70" height="70" as="geometry" />
        </mxCell>
        <mxCell id="ZDUaPTV_WmkxvIF6fVCS-61" value="" style="ellipse;whiteSpace=wrap;html=1;aspect=fixed;" vertex="1" parent="1">
          <mxGeometry x="780" y="300" width="70" height="70" as="geometry" />
        </mxCell>
        <mxCell id="ZDUaPTV_WmkxvIF6fVCS-62" value="" style="ellipse;whiteSpace=wrap;html=1;aspect=fixed;" vertex="1" parent="1">
          <mxGeometry x="940" y="300" width="70" height="70" as="geometry" />
        </mxCell>
        <mxCell id="ZDUaPTV_WmkxvIF6fVCS-63" value="" style="ellipse;whiteSpace=wrap;html=1;aspect=fixed;" vertex="1" parent="1">
          <mxGeometry x="1020" y="300" width="70" height="70" as="geometry" />
        </mxCell>
        <mxCell id="ZDUaPTV_WmkxvIF6fVCS-64" value="Undo" style="strokeWidth=1;shadow=0;dashed=0;align=center;html=1;shape=mxgraph.mockup.buttons.button;strokeColor=#666666;fontColor=#333333;mainText=;buttonStyle=round;fontSize=17;fontStyle=1;fillColor=#f5f5f5;whiteSpace=wrap;" vertex="1" parent="1">
          <mxGeometry x="530" y="820" width="80" height="50" as="geometry" />
        </mxCell>
        <mxCell id="ZDUaPTV_WmkxvIF6fVCS-65" value="Redo" style="strokeWidth=1;shadow=0;dashed=0;align=center;html=1;shape=mxgraph.mockup.buttons.button;strokeColor=#666666;fontColor=#333333;mainText=;buttonStyle=round;fontSize=17;fontStyle=1;fillColor=#f5f5f5;whiteSpace=wrap;" vertex="1" parent="1">
          <mxGeometry x="615" y="820" width="80" height="50" as="geometry" />
        </mxCell>
        <mxCell id="ZDUaPTV_WmkxvIF6fVCS-66" value="Bonus" style="strokeWidth=1;shadow=0;dashed=0;align=center;html=1;shape=mxgraph.mockup.buttons.button;strokeColor=#666666;fontColor=#333333;mainText=;buttonStyle=round;fontSize=17;fontStyle=1;fillColor=#f5f5f5;whiteSpace=wrap;" vertex="1" parent="1">
          <mxGeometry x="775" y="820" width="80" height="50" as="geometry" />
        </mxCell>
        <mxCell id="ZDUaPTV_WmkxvIF6fVCS-67" value="Quitter" style="strokeWidth=1;shadow=0;dashed=0;align=center;html=1;shape=mxgraph.mockup.buttons.button;strokeColor=#666666;fontColor=#333333;mainText=;buttonStyle=round;fontSize=17;fontStyle=1;fillColor=#f5f5f5;whiteSpace=wrap;" vertex="1" parent="1">
          <mxGeometry x="1010" y="820" width="90" height="50" as="geometry" />
        </mxCell>
      </root>
    </mxGraphModel>
  </diagram>
  <diagram id="NE7c-XT89oKmcaYiYi_b" name="PageParamètres">
    <mxGraphModel dx="1736" dy="1052" grid="1" gridSize="10" guides="1" tooltips="1" connect="1" arrows="1" fold="1" page="1" pageScale="1" pageWidth="1920" pageHeight="1200" math="0" shadow="0">
      <root>
        <mxCell id="0" />
        <mxCell id="1" parent="0" />
        <mxCell id="NnzAA-BNGI6FcEWkGasD-1" value="Puissance Quatre" style="strokeWidth=1;shadow=0;dashed=0;align=center;html=1;shape=mxgraph.mockup.containers.window;align=left;verticalAlign=top;spacingLeft=8;strokeColor2=#008cff;strokeColor3=#c4c4c4;fontColor=#666666;mainText=;fontSize=17;labelBackgroundColor=none;whiteSpace=wrap;" vertex="1" parent="1">
          <mxGeometry x="660" y="270" width="600" height="570" as="geometry" />
        </mxCell>
        <mxCell id="NnzAA-BNGI6FcEWkGasD-2" value="" style="strokeWidth=1;shadow=0;dashed=0;align=center;html=1;shape=mxgraph.mockup.forms.rrect;rSize=0;strokeColor=#999999;" vertex="1" parent="1">
          <mxGeometry x="660" y="300" width="600" height="30" as="geometry" />
        </mxCell>
        <mxCell id="NnzAA-BNGI6FcEWkGasD-3" value="Partie" style="strokeColor=inherit;fillColor=inherit;gradientColor=inherit;strokeWidth=1;shadow=0;dashed=0;align=center;html=1;shape=mxgraph.mockup.forms.rrect;rSize=0;fontSize=17;fontColor=#666666;whiteSpace=wrap;" vertex="1" parent="NnzAA-BNGI6FcEWkGasD-2">
          <mxGeometry width="68.18181818181817" height="30" as="geometry" />
        </mxCell>
        <mxCell id="NnzAA-BNGI6FcEWkGasD-4" value="Paramètres" style="strokeColor=inherit;fillColor=inherit;gradientColor=inherit;strokeWidth=1;shadow=0;dashed=0;align=center;html=1;shape=mxgraph.mockup.forms.rrect;rSize=0;fontSize=17;fontColor=#666666;whiteSpace=wrap;" vertex="1" parent="NnzAA-BNGI6FcEWkGasD-2">
          <mxGeometry x="68.18181818181817" width="121.72500000000001" height="30" as="geometry" />
        </mxCell>
        <mxCell id="NnzAA-BNGI6FcEWkGasD-5" value="A Propos" style="strokeColor=inherit;fillColor=inherit;gradientColor=inherit;strokeWidth=1;shadow=0;dashed=0;align=center;html=1;shape=mxgraph.mockup.forms.rrect;rSize=0;fontSize=17;fontColor=#666666;whiteSpace=wrap;" vertex="1" parent="NnzAA-BNGI6FcEWkGasD-2">
          <mxGeometry x="190.9090909090909" width="102.27272727272728" height="30" as="geometry" />
        </mxCell>
        <mxCell id="NnzAA-BNGI6FcEWkGasD-6" value="&lt;h1 style=&quot;font-size: 36px;&quot;&gt;Personnalisation&lt;/h1&gt;" style="text;html=1;strokeColor=none;fillColor=none;align=center;verticalAlign=middle;whiteSpace=wrap;rounded=0;" vertex="1" parent="1">
          <mxGeometry x="809" y="600" width="302" height="60" as="geometry" />
        </mxCell>
        <mxCell id="NnzAA-BNGI6FcEWkGasD-7" value="&lt;h1 style=&quot;font-size: 22px;&quot;&gt;&lt;font style=&quot;font-size: 22px;&quot;&gt;&lt;span style=&quot;font-weight: normal;&quot;&gt;Taille de la grille&lt;/span&gt; :&lt;/font&gt;&lt;/h1&gt;" style="text;html=1;strokeColor=none;fillColor=none;align=center;verticalAlign=middle;whiteSpace=wrap;rounded=0;" vertex="1" parent="1">
          <mxGeometry x="670" y="420" width="180" height="30" as="geometry" />
        </mxCell>
        <mxCell id="NnzAA-BNGI6FcEWkGasD-8" value="&lt;div&gt;6&lt;/div&gt;" style="strokeWidth=1;shadow=0;dashed=0;align=center;html=1;shape=mxgraph.mockup.forms.spinner;strokeColor=#999999;spinLayout=right;spinStyle=normal;adjStyle=triangle;fillColor=#aaddff;fontSize=17;fontColor=#666666;mainText=;html=1;overflow=fill;" vertex="1" parent="1">
          <mxGeometry x="940" y="420" width="90" height="30" as="geometry" />
        </mxCell>
        <mxCell id="NnzAA-BNGI6FcEWkGasD-9" value="7" style="strokeWidth=1;shadow=0;dashed=0;align=center;html=1;shape=mxgraph.mockup.forms.spinner;strokeColor=#999999;spinLayout=right;spinStyle=normal;adjStyle=triangle;fillColor=#aaddff;fontSize=17;fontColor=#666666;mainText=;html=1;overflow=fill;" vertex="1" parent="1">
          <mxGeometry x="1058" y="420" width="90" height="30" as="geometry" />
        </mxCell>
        <mxCell id="NnzAA-BNGI6FcEWkGasD-11" value="&lt;font style=&quot;font-size: 22px;&quot;&gt;&lt;span style=&quot;font-weight: normal;&quot;&gt;Nombre de jetons requis&lt;/span&gt; :&lt;/font&gt;" style="text;html=1;strokeColor=none;fillColor=none;align=center;verticalAlign=middle;whiteSpace=wrap;rounded=0;" vertex="1" parent="1">
          <mxGeometry x="670" y="480" width="260" height="50" as="geometry" />
        </mxCell>
        <mxCell id="NnzAA-BNGI6FcEWkGasD-12" style="edgeStyle=orthogonalEdgeStyle;rounded=0;orthogonalLoop=1;jettySize=auto;html=1;exitX=0.5;exitY=1;exitDx=0;exitDy=0;" edge="1" parent="1" source="NnzAA-BNGI6FcEWkGasD-11" target="NnzAA-BNGI6FcEWkGasD-11">
          <mxGeometry relative="1" as="geometry" />
        </mxCell>
        <mxCell id="NnzAA-BNGI6FcEWkGasD-19" value="&lt;table cellpadding=&quot;0&quot; cellspacing=&quot;0&quot; style=&quot;width:100%;height:100%;&quot;&gt;&lt;tbody&gt;&lt;tr&gt;&lt;td style=&quot;width:85%&quot;&gt;4&lt;br&gt;&lt;/td&gt;&lt;td style=&quot;width:15%&quot;&gt;&lt;/td&gt;&lt;/tr&gt;&lt;/tbody&gt;&lt;/table&gt;" style="strokeWidth=1;shadow=0;dashed=0;align=center;html=1;shape=mxgraph.mockup.forms.spinner;strokeColor=#999999;spinLayout=right;spinStyle=normal;adjStyle=triangle;fillColor=#aaddff;fontSize=17;fontColor=#666666;mainText=;html=1;overflow=fill;" vertex="1" parent="1">
          <mxGeometry x="940" y="490" width="90" height="30" as="geometry" />
        </mxCell>
        <mxCell id="NnzAA-BNGI6FcEWkGasD-20" value="&lt;h1 style=&quot;font-size: 22px;&quot;&gt;&lt;font style=&quot;font-size: 22px;&quot;&gt;&lt;span style=&quot;font-weight: normal;&quot;&gt;Difficulté&lt;/span&gt; :&lt;/font&gt;&lt;/h1&gt;" style="text;html=1;strokeColor=none;fillColor=none;align=center;verticalAlign=middle;whiteSpace=wrap;rounded=0;" vertex="1" parent="1">
          <mxGeometry x="670" y="540" width="110" height="30" as="geometry" />
        </mxCell>
        <mxCell id="NnzAA-BNGI6FcEWkGasD-22" value="" style="verticalLabelPosition=bottom;shadow=0;dashed=0;align=center;html=1;verticalAlign=top;strokeWidth=3;shape=mxgraph.mockup.forms.horSlider;strokeColor=#999999;sliderStyle=basic;sliderPos=20;handleStyle=circle;fillColor2=#ddeeff;" vertex="1" parent="1">
          <mxGeometry x="790" y="540" width="350" height="30" as="geometry" />
        </mxCell>
        <mxCell id="NnzAA-BNGI6FcEWkGasD-23" value="" style="verticalLabelPosition=bottom;shadow=0;dashed=0;align=center;html=1;verticalAlign=top;strokeWidth=1;shape=mxgraph.mockup.forms.splitter;strokeColor=#999999;" vertex="1" parent="1">
          <mxGeometry x="660" y="590" width="600" height="10" as="geometry" />
        </mxCell>
        <mxCell id="NnzAA-BNGI6FcEWkGasD-24" value="&lt;h1 style=&quot;font-size: 36px;&quot;&gt;Paramètres&lt;/h1&gt;" style="text;html=1;strokeColor=none;fillColor=none;align=center;verticalAlign=middle;whiteSpace=wrap;rounded=0;" vertex="1" parent="1">
          <mxGeometry x="863" y="340" width="195" height="60" as="geometry" />
        </mxCell>
        <mxCell id="NnzAA-BNGI6FcEWkGasD-25" value="&lt;h1 style=&quot;font-size: 22px;&quot;&gt;&lt;font style=&quot;font-size: 22px;&quot;&gt;&lt;span style=&quot;font-weight: normal;&quot;&gt;Couleurs de la grille&lt;/span&gt; :&lt;/font&gt;&lt;/h1&gt;" style="text;html=1;strokeColor=none;fillColor=none;align=center;verticalAlign=middle;whiteSpace=wrap;rounded=0;" vertex="1" parent="1">
          <mxGeometry x="680" y="780" width="220" height="30" as="geometry" />
        </mxCell>
        <mxCell id="NnzAA-BNGI6FcEWkGasD-26" value="&lt;h1 style=&quot;font-size: 22px;&quot;&gt;&lt;font style=&quot;font-size: 22px;&quot;&gt;&lt;span style=&quot;font-weight: normal;&quot;&gt;Couleurs des jetons du joueur&lt;/span&gt; :&lt;/font&gt;&lt;/h1&gt;" style="text;html=1;strokeColor=none;fillColor=none;align=center;verticalAlign=middle;whiteSpace=wrap;rounded=0;" vertex="1" parent="1">
          <mxGeometry x="680" y="670" width="320" height="30" as="geometry" />
        </mxCell>
        <mxCell id="NnzAA-BNGI6FcEWkGasD-27" value="&lt;h1 style=&quot;font-size: 22px;&quot;&gt;&lt;font style=&quot;font-size: 22px;&quot;&gt;&lt;span style=&quot;font-weight: normal;&quot;&gt;Couleur des jetons du bot&lt;/span&gt; :&lt;/font&gt;&lt;/h1&gt;" style="text;html=1;strokeColor=none;fillColor=none;align=center;verticalAlign=middle;whiteSpace=wrap;rounded=0;" vertex="1" parent="1">
          <mxGeometry x="680" y="730" width="270" height="30" as="geometry" />
        </mxCell>
        <mxCell id="NnzAA-BNGI6FcEWkGasD-28" value="" style="verticalLabelPosition=bottom;shadow=0;dashed=0;align=center;html=1;verticalAlign=top;strokeWidth=1;shape=mxgraph.mockup.forms.colorPicker;chosenColor=#aaddff;" vertex="1" parent="1">
          <mxGeometry x="1018" y="665" width="40" height="40" as="geometry" />
        </mxCell>
        <mxCell id="NnzAA-BNGI6FcEWkGasD-29" value="" style="verticalLabelPosition=bottom;shadow=0;dashed=0;align=center;html=1;verticalAlign=top;strokeWidth=1;shape=mxgraph.mockup.forms.colorPicker;chosenColor=#aaddff;" vertex="1" parent="1">
          <mxGeometry x="960" y="725" width="40" height="40" as="geometry" />
        </mxCell>
        <mxCell id="NnzAA-BNGI6FcEWkGasD-30" value="" style="verticalLabelPosition=bottom;shadow=0;dashed=0;align=center;html=1;verticalAlign=top;strokeWidth=1;shape=mxgraph.mockup.forms.colorPicker;chosenColor=#aaddff;" vertex="1" parent="1">
          <mxGeometry x="920" y="775" width="40" height="40" as="geometry" />
        </mxCell>
      </root>
    </mxGraphModel>
  </diagram>
</mxfile>
